/* XPM */
static char *_7925406b8a149239737b78cd18700carfZdzEnv8gVI2nvr[] = {
/* columns rows colors chars-per-pixel */
"64 64 12 1 ",
"  c None",
". c #101010",
"X c #302828",
"o c #403838",
"O c #585050",
"+ c #F85838",
"@ c #C89028",
"# c #F8C000",
"$ c #908080",
"% c #B0A0A0",
"& c #F8E888",
"* c #F8F8F8",
/* pixels */
"                                                                ",
"                                                                ",
"                                                                ",
"                                                                ",
"                                                                ",
"                                                                ",
"                                                                ",
"                                                                ",
"                                                                ",
"                                                                ",
"                                                                ",
"                                                                ",
"                                                                ",
"                                                                ",
"                                                                ",
"                     Oo                                         ",
"                     O$oo                          oo           ",
"          OO         O$OOoo                      ooO.           ",
"          O$o         O$$O@o                   oo$$O.           ",
"          o$$o        o$$##@.                 @&O$OO.           ",
"          o$$Oo       o$&&#OO.               @#&OOOO.           ",
"          o$$$Oo       @&&OOOO.             o%#&#OOX            ",
"          o$$&#@o      @&O$$OO.            o%$$####.            ",
"           @&&##o       @$$$$OOo          o$$$$O##@             ",
"           @&&&#@.      oO$$$OO.          o$$$OOOOX             ",
"           @&#$$O.       oO$$OO. OOOoo.. o$$$OOOO.              ",
"           @#$$$OOo       ooOOOOo$$$$$OOoo$$OOOO.               ",
"           o$$$$OO.         ooOo$$$&$$$OoOOOOOX.                ",
"           o$$$$OO.           oO$$&&#$$OOOOX..                  ",
"            o$$OOOOX          XO$&#O#$$OOOXo                    ",
"            oOOOOOO.         o.O$&O$#$OOOOOo.                   ",
"             oOOOOO.         X+.$#O$#$OO.XOo.                   ",
"             oOOOOO.         X+*O#O#@OO.+XOo.                   ",
"              oOOOO.         X+.OO#@OO.*+ooo.                   ",
"               oOOO. OoXX    X+XOOOOOOX.+oo.                    ",
"                .OOoo$$$$XX   X+OOOOOX+X+oo.                    ",
"                 oo$$$$$$$$ooo.oOOOOOoOOOo.                     ",
"                 o$$%$$$$$$$$OO.ooOOOOOOX..                     ",
"                oO$%%$$$$$$$$$$$XOOOOO..oo.                     ",
"                o$%%%$$$$$$$$$$$$X....oooo.                     ",
"               oO$%%$$$$$$$$$$$$$OOo.ooooo.                     ",
"               oO$$$$$$$$$$$$$$$$OOo.ooooo.                     ",
"               oO$$$$$$$$$$$$$$$$OOOoOooooo                     ",
"               oO$&$$$$OO$$$$$$$$OOOOOOoooo.                    ",
"               oO&##O$$OOOOO$$$$OOOOOOOoooo.                    ",
"                @@O#OOOOXOOOOOOOOOOOOOOoooo.                    ",
"                oO@#OOOO.XOOOOXOOOOOOXOoooo.                    ",
"                o@#OOOOO...OOOXOO#OOOXooo.o.                    ",
"               o##OOOOO.ooo...XO&&#OOXoo.oo.                    ",
"              oOOOOOOO.Xoooo. .X&O#OOX..ooo.                    ",
"              oOOOOO.. Xooo.   X&O#OOX .ooo.                    ",
"              oOOOo.   Xoo.    X#O#OO. .ooo.                    ",
"              oOOOo.   Xoo.    o#@#OO. Xooo.                    ",
"              oOOOo.   Xoo.     o#OO.  Xooo.                    ",
"               oOOo.   Xooo.    oOOO.   XOoo                    ",
"               .OOoX   Xooo.    oOOO.   XOOo.                   ",
"               .OOOX    XoOO.    oOOO.  XOOO.                   ",
"               .OOOO.   .ooO.    oOOO.  oOOO.                   ",
"                o$oO.    ...     oOOO.   XOO..                  ",
"                o$XO.            oOOOO.  XO$$.                  ",
"                 ...              OOOOOX XOXO.                  ",
"                                  o$XO$.  ...                   ",
"                                  o$XO$.                        ",
"                                   X...                         "
};
